<svg width="245" height="62" viewBox="0 0 245 62" fill="none" xmlns="http://www.w3.org/2000/svg">
<g clip-path="url(#clip0_1345_1219)">
<path d="M12.1338 17.5124H55.2546V12.2783H17.3679V5.73736H55.2546V0.503296H12.1338V17.5124Z" fill="#259D4A"/>
<path d="M50.0207 24.2565V33.9901C50.0207 39.9291 47.6614 45.6248 43.4619 49.8243C39.2624 54.0237 33.5667 56.383 27.6278 56.383C21.6888 56.383 15.9931 54.0237 11.7936 49.8243C7.59411 45.6248 5.23487 39.9291 5.23487 33.9901V0.503296H0V33.9901C0 41.3173 2.91073 48.3444 8.09187 53.5256C13.273 58.7067 20.3001 61.6174 27.6274 61.6174C34.9546 61.6174 41.9817 58.7067 47.1629 53.5256C52.344 48.3444 55.2547 41.3173 55.2547 33.9901V24.2565H50.0207Z" fill="#259D4A"/>
<path d="M37.8863 33.5713C37.8623 36.2764 36.771 38.8626 34.8496 40.767C32.9283 42.6714 30.3325 43.7399 27.6273 43.7399C24.922 43.7399 22.3263 42.6714 20.4049 40.767C18.4836 38.8626 17.3922 36.2764 17.3683 33.5713V24.2567H12.1342V33.5713C12.1195 35.6152 12.5094 37.6419 13.2814 39.5345C14.0534 41.4271 15.1922 43.1483 16.6324 44.5988C18.0725 46.0494 19.7854 47.2006 21.6724 47.9862C23.5594 48.7718 25.5832 49.1763 27.6273 49.1763C29.6713 49.1763 31.6951 48.7718 33.5821 47.9862C35.4691 47.2006 37.182 46.0494 38.6222 44.5988C40.0623 43.1483 41.2012 41.4271 41.9732 39.5345C42.7452 37.6419 43.1351 35.6152 43.1203 33.5713V24.2567H37.8863V33.5713Z" fill="#259D4A"/>
<path d="M27.5302 34.5977L30.3303 36.3622V24.2556H24.926V36.3622L27.5302 34.5977Z" fill="#259D4A"/>
<path d="M70.4379 18.8049V3.17981H73.7092V15.9198H81.4744V18.8049H70.4379Z" fill="#17444C"/>
<path d="M89.3491 15.3046H92.4815C92.2078 16.4573 91.5274 17.4726 90.5653 18.164C89.5333 18.8745 88.3014 19.2367 87.0491 19.198C86.2935 19.2336 85.5394 19.1012 84.841 18.8104C84.1427 18.5196 83.5175 18.0776 83.0104 17.5162C81.9615 16.2374 81.4296 14.612 81.5197 12.9605C81.4281 11.3399 81.9525 9.74469 82.9879 8.49467C83.4976 7.94555 84.1213 7.51472 84.8153 7.23249C85.5093 6.95026 86.2567 6.82347 87.005 6.86103C87.7747 6.81319 88.5457 6.932 89.2653 7.20936C89.9848 7.48672 90.6361 7.9161 91.1746 8.46818C92.2272 9.7524 92.7526 11.3886 92.6445 13.0456C92.6445 13.2655 92.642 13.4293 92.6388 13.5385C92.6354 13.6435 92.6263 13.7483 92.6115 13.8524H84.7709C84.7556 14.5917 84.9936 15.3139 85.4452 15.8994C85.6692 16.1362 85.9427 16.3207 86.2462 16.4398C86.5496 16.5588 86.8756 16.6095 87.2009 16.5882C87.6637 16.6072 88.1228 16.4992 88.5287 16.2759C88.8949 16.0435 89.1812 15.7045 89.3491 15.3046ZM84.7709 11.8254H89.3932C89.4117 11.175 89.186 10.5412 88.7606 10.0488C88.5363 9.83618 88.2703 9.67227 87.9795 9.56741C87.6886 9.46255 87.3793 9.41901 87.0708 9.43953C86.7737 9.42339 86.4765 9.46978 86.1984 9.57571C85.9203 9.68163 85.6675 9.84473 85.4564 10.0545C85.0294 10.5474 84.7871 11.1734 84.7709 11.8254Z" fill="#17444C"/>
<path d="M100.561 17.3735C100.177 17.9641 99.6392 18.4389 99.0055 18.747C98.3072 19.0746 97.5426 19.2364 96.7714 19.2199C96.2907 19.2506 95.8087 19.1815 95.3559 19.0171C94.903 18.8528 94.4891 18.5965 94.14 18.2646C93.4849 17.5172 93.1529 16.5406 93.2168 15.5488C93.186 15.0917 93.2523 14.6332 93.4114 14.2036C93.5705 13.774 93.8188 13.3829 94.14 13.0562C95.0208 12.3745 96.0816 11.9651 97.1921 11.8785C97.5156 11.8287 97.9395 11.7725 98.4661 11.7091C99.7971 11.5389 100.463 11.1606 100.465 10.574C100.482 10.383 100.451 10.1907 100.373 10.0152C100.296 9.83976 100.175 9.68699 100.022 9.57135C99.5665 9.33299 99.0531 9.22808 98.5407 9.2687C98.0281 9.2364 97.5183 9.36645 97.0837 9.64039C96.9175 9.76117 96.7841 9.92143 96.6953 10.1067C96.6066 10.292 96.5655 10.4965 96.5756 10.7016V10.871H93.639V10.6591C93.6155 10.1271 93.7188 9.59712 93.9405 9.11292C94.1622 8.62871 94.4958 8.20416 94.9138 7.87429C95.9371 7.14528 97.1789 6.78783 98.4332 6.86119C99.7455 6.78274 101.054 7.07305 102.209 7.69929C102.624 7.94795 102.965 8.30354 103.196 8.72889C103.426 9.15424 103.538 9.63373 103.52 10.1172V16.6735C103.502 17.0389 103.554 17.4045 103.672 17.7508C103.77 17.9851 103.951 18.1753 104.18 18.2854V18.8056H100.907C100.796 18.5984 100.712 18.3773 100.658 18.1482C100.6 17.894 100.567 17.6344 100.561 17.3735ZM100.507 13.1308C99.9409 13.3819 99.3492 13.5701 98.7422 13.692C98.0751 13.8341 97.7307 13.9085 97.7091 13.9151C97.2786 14.0058 96.8791 14.2069 96.5499 14.4988C96.3172 14.7645 96.1984 15.1111 96.2191 15.4637C96.2105 15.6532 96.2439 15.8423 96.3169 16.0175C96.3899 16.1926 96.5007 16.3495 96.6414 16.4768C96.9582 16.7409 97.3631 16.8753 97.7749 16.8533C98.1389 16.8741 98.5034 16.8225 98.8473 16.7015C99.1912 16.5805 99.5078 16.3925 99.7786 16.1484C100.027 15.8955 100.219 15.5937 100.345 15.2624C100.47 14.931 100.525 14.5772 100.507 14.2234V13.1308Z" fill="#17444C"/>
<path d="M105.38 18.8051V7.27488H108.296V9.24729C108.622 8.55546 109.116 7.9557 109.731 7.50207C110.312 7.12168 110.994 6.92758 111.688 6.94575C111.808 6.94575 111.905 6.94735 111.973 6.95137C112.04 6.95538 112.097 6.9602 112.141 6.96662L112.153 10.0958H111.104C110.754 10.0695 110.402 10.1142 110.07 10.2273C109.738 10.3405 109.432 10.5196 109.17 10.7541C108.939 11.0205 108.762 11.3301 108.651 11.6651C108.54 12 108.496 12.3537 108.522 12.7056V18.8051H105.38Z" fill="#17444C"/>
<path d="M112.983 18.8055V7.27525H116.062V8.64398C116.473 8.10749 117.006 7.67655 117.616 7.38684C118.243 7.10078 118.925 6.95739 119.614 6.96699C120.141 6.92585 120.671 6.99262 121.172 7.16322C121.672 7.33382 122.133 7.60467 122.525 7.95922C123.229 8.78767 123.577 9.86087 123.492 10.9447V18.8055H120.35V11.8366C120.404 11.2151 120.254 10.5929 119.923 10.0641C119.748 9.87544 119.532 9.72958 119.291 9.63772C119.05 9.54586 118.792 9.51046 118.535 9.53425C118.213 9.51725 117.89 9.56638 117.588 9.67861C117.285 9.79085 117.008 9.96383 116.775 10.1869C116.552 10.4237 116.38 10.7033 116.268 11.0086C116.156 11.314 116.108 11.6388 116.125 11.9634V18.8055H112.983Z" fill="#17444C"/>
<path d="M132.546 15.3044H135.678C135.403 16.4573 134.722 17.4726 133.76 18.1639C132.728 18.8743 131.496 19.2366 130.244 19.1979C129.488 19.233 128.734 19.1004 128.036 18.8097C127.337 18.5189 126.712 18.0771 126.205 17.5161C125.157 16.2368 124.625 14.6118 124.714 12.9603C124.624 11.3399 125.148 9.7451 126.182 8.49452C126.693 7.94531 127.317 7.51445 128.011 7.23222C128.705 6.95 129.453 6.82325 130.202 6.86088C130.971 6.81342 131.742 6.93241 132.462 7.20975C133.181 7.4871 133.832 7.91627 134.371 8.46803C135.422 9.75283 135.947 11.3887 135.839 13.0454C135.839 13.2654 135.837 13.4292 135.833 13.5383C135.83 13.6434 135.821 13.7482 135.806 13.8522H127.965C127.952 14.5912 128.19 15.3129 128.639 15.8993C128.864 16.1358 129.137 16.3201 129.441 16.4392C129.744 16.5582 130.07 16.609 130.395 16.5881C130.858 16.6071 131.318 16.4991 131.724 16.2758C132.09 16.0427 132.377 15.704 132.546 15.3044ZM127.965 11.8252H132.587C132.606 11.1751 132.381 10.5416 131.956 10.0487C131.732 9.83583 131.466 9.67181 131.175 9.56694C130.883 9.46208 130.574 9.41865 130.265 9.43938C129.968 9.42339 129.671 9.46985 129.393 9.57577C129.115 9.68168 128.862 9.8447 128.651 10.0543C128.224 10.5472 127.981 11.1733 127.965 11.8252Z" fill="#17444C"/>
<path d="M137.026 18.8051V7.27489H139.943V9.24729C140.27 8.55567 140.764 7.95603 141.38 7.50207C141.959 7.12169 142.641 6.92757 143.335 6.94575C143.457 6.94575 143.552 6.94735 143.622 6.95137C143.678 6.95365 143.733 6.95874 143.788 6.96662L143.799 10.0958H142.751C142.401 10.0693 142.05 10.114 141.718 10.2271C141.386 10.3403 141.08 10.5195 140.819 10.7541C140.587 11.0202 140.41 11.3297 140.299 11.6647C140.187 11.9997 140.143 12.3535 140.17 12.7056V18.8051H137.026Z" fill="#17444C"/>
<path d="M143.973 15.0507H147.105C147.102 15.3048 147.159 15.5562 147.271 15.7839C147.384 16.0117 147.549 16.2094 147.754 16.3608C148.301 16.6841 148.934 16.8336 149.568 16.7895C150.06 16.817 150.55 16.7128 150.989 16.4876C151.143 16.4054 151.271 16.2822 151.36 16.1316C151.448 15.981 151.493 15.8089 151.49 15.6343C151.49 15.1098 150.863 14.7173 149.61 14.4566C149.1 14.3507 148.692 14.2583 148.39 14.1805C147.242 13.9691 146.156 13.5054 145.209 12.823C144.913 12.5573 144.679 12.2291 144.525 11.8622C144.371 11.4953 144.3 11.0988 144.318 10.7013C144.297 10.1639 144.404 9.62917 144.63 9.14133C144.857 8.6535 145.196 8.2265 145.62 7.89557C146.642 7.15748 147.887 6.79225 149.146 6.8608C150.459 6.78616 151.76 7.1483 152.846 7.89075C153.29 8.23186 153.65 8.67017 153.898 9.17201C154.146 9.67385 154.275 10.2258 154.276 10.7855H151.221C151.22 10.5656 151.168 10.3489 151.07 10.1522C150.972 9.95542 150.829 9.78401 150.654 9.65123C150.216 9.35869 149.694 9.2172 149.167 9.24824C148.708 9.21817 148.248 9.30953 147.835 9.51315C147.695 9.59243 147.581 9.70873 147.504 9.84915C147.426 9.98957 147.39 10.1486 147.397 10.3087C147.397 10.7687 148.178 11.1754 149.74 11.5289C150.1 11.6068 150.385 11.6702 150.594 11.7192C151.747 11.9039 152.842 12.3505 153.795 13.0245C154.088 13.2984 154.316 13.6332 154.465 14.0053C154.613 14.3774 154.678 14.7776 154.654 15.1775C154.686 15.7541 154.574 16.3296 154.328 16.852C154.082 17.3744 153.71 17.8272 153.245 18.1694C152.02 18.9327 150.586 19.2924 149.146 19.1978C147.794 19.2776 146.455 18.9001 145.344 18.1261C144.896 17.7803 144.538 17.3319 144.299 16.8188C144.06 16.3057 143.948 15.7429 143.973 15.1775V15.0507Z" fill="#17444C"/>
<path d="M70.3386 25.5339H73.6444V35.3358C73.5643 36.2777 73.8252 37.217 74.3798 37.9825C74.6851 38.2814 75.0517 38.5105 75.4542 38.6541C75.8566 38.7977 76.2854 38.8523 76.711 38.8142C77.1407 38.8531 77.5738 38.7993 77.9809 38.6565C78.3881 38.5138 78.7599 38.2853 79.0712 37.9865C79.6311 37.2219 79.8944 36.2799 79.8121 35.3358V25.5339H83.085V35.6858C83.1378 36.495 83.0194 37.3062 82.7373 38.0664C82.4553 38.8267 82.016 39.5189 81.4482 40.0978C80.1348 41.2018 78.4445 41.7534 76.7327 41.6367C75.0123 41.7536 73.3128 41.2046 71.9859 40.1034C71.4145 39.5255 70.9722 38.8329 70.6882 38.0714C70.4043 37.3098 70.2851 36.4968 70.3386 35.6858V25.5339Z" fill="#17444C"/>
<path d="M85.137 41.2012V29.671H88.2164V31.0397C88.6273 30.5032 89.16 30.0723 89.7706 29.7826C90.3973 29.4964 91.0798 29.353 91.7687 29.3627C92.2958 29.3216 92.8258 29.3884 93.3263 29.559C93.8268 29.7296 94.2872 30.0004 94.6795 30.355C95.3834 31.1834 95.7311 32.2566 95.6468 33.3405V41.2012H92.504V34.232C92.5584 33.6106 92.4088 32.9883 92.0777 32.4595C91.9023 32.2709 91.686 32.125 91.4453 32.0332C91.2047 31.9413 90.9462 31.9059 90.6897 31.9297C90.3673 31.9127 90.0448 31.9618 89.742 32.074C89.4393 32.1863 89.1627 32.3593 88.9293 32.5823C88.7065 32.8192 88.5341 33.0987 88.4225 33.4041C88.3109 33.7094 88.2623 34.0342 88.2798 34.3589V41.2009L85.137 41.2012Z" fill="#17444C"/>
<path d="M97.5262 25.576H100.669V28.3878H97.5262V25.576ZM97.5262 29.671H100.669V41.2012H97.5262V29.671Z" fill="#17444C"/>
<path d="M105.486 41.2013L101.262 29.6711H104.74L107.15 37.9445L109.58 29.6711H112.894L108.693 41.2013H105.486Z" fill="#17444C"/>
<path d="M120.664 37.7002H123.796C123.522 38.8531 122.841 39.8684 121.878 40.5596C120.846 41.2701 119.614 41.6323 118.362 41.5936C117.607 41.6288 116.853 41.4962 116.154 41.2054C115.456 40.9146 114.831 40.4729 114.323 39.9118C113.275 38.6326 112.743 37.0075 112.833 35.3561C112.742 33.7357 113.267 32.1409 114.301 30.8903C114.811 30.3411 115.435 29.9102 116.13 29.628C116.824 29.3458 117.572 29.219 118.32 29.2566C119.09 29.2092 119.861 29.3282 120.58 29.6055C121.299 29.8829 121.951 30.312 122.489 30.8638C123.541 32.1486 124.065 33.7845 123.957 35.4412C123.957 35.6611 123.955 35.8249 123.952 35.9341C123.948 36.0391 123.939 36.1439 123.925 36.248H116.084C116.071 36.987 116.308 37.7086 116.758 38.295C116.983 38.5316 117.256 38.7159 117.559 38.8349C117.863 38.954 118.189 39.0048 118.514 38.9838C118.977 39.0028 119.437 38.8948 119.843 38.6715C120.209 38.4385 120.496 38.0997 120.664 37.7002ZM116.084 34.221H120.706C120.725 33.5709 120.5 32.9374 120.075 32.4444C119.851 32.2316 119.585 32.0676 119.293 31.9627C119.002 31.8578 118.693 31.8144 118.384 31.8351C118.087 31.8191 117.79 31.8656 117.512 31.9715C117.234 32.0774 116.981 32.2405 116.77 32.4501C116.343 32.943 116.1 33.569 116.084 34.221Z" fill="#17444C"/>
<path d="M125.146 41.2014V29.6712H128.062V31.6437C128.39 30.952 128.883 30.3524 129.499 29.8984C130.079 29.518 130.761 29.3239 131.454 29.3421C131.577 29.3421 131.672 29.3437 131.741 29.3477C131.797 29.35 131.853 29.3551 131.908 29.363L131.919 32.4922H130.87C130.521 32.4657 130.169 32.5103 129.837 32.6235C129.505 32.7366 129.199 32.9159 128.938 33.1505C128.706 33.4165 128.529 33.7261 128.418 34.0611C128.306 34.3961 128.262 34.7499 128.289 35.102V41.2014H125.146Z" fill="#17444C"/>
<path d="M132.091 37.4464H135.224C135.22 37.7006 135.277 37.9519 135.39 38.1797C135.503 38.4075 135.668 38.6052 135.872 38.7565C136.42 39.0799 137.052 39.2294 137.687 39.1852C138.179 39.2128 138.669 39.1086 139.108 38.8834C139.262 38.8011 139.39 38.6779 139.478 38.5273C139.567 38.3767 139.612 38.2046 139.608 38.03C139.608 37.5056 138.982 37.113 137.728 36.8524C137.219 36.7464 136.811 36.6541 136.509 36.5762C135.361 36.3648 134.274 35.9012 133.328 35.2187C133.031 34.953 132.798 34.6249 132.644 34.258C132.49 33.8911 132.419 33.4946 132.437 33.097C132.416 32.5596 132.523 32.0249 132.749 31.5371C132.975 31.0492 133.315 30.6222 133.739 30.2913C134.761 29.5532 136.005 29.188 137.264 29.2566C138.578 29.1819 139.879 29.5441 140.965 30.2865C141.409 30.6276 141.769 31.0659 142.016 31.5678C142.264 32.0696 142.394 32.6216 142.395 33.1813H139.339C139.339 32.9614 139.287 32.7446 139.189 32.5479C139.09 32.3512 138.948 32.1798 138.773 32.047C138.334 31.7544 137.812 31.613 137.286 31.644C136.826 31.6139 136.367 31.7053 135.953 31.9089C135.814 31.9882 135.7 32.1045 135.622 32.2449C135.545 32.3853 135.508 32.5444 135.516 32.7044C135.516 33.1644 136.297 33.5712 137.858 33.9247C138.219 34.0025 138.504 34.066 138.712 34.1149C139.865 34.2997 140.961 34.7462 141.914 35.4202C142.206 35.6941 142.435 36.029 142.583 36.4011C142.732 36.7732 142.796 37.1733 142.773 37.5733C142.805 38.1498 142.693 38.7254 142.447 39.2478C142.201 39.7701 141.828 40.2229 141.363 40.5652C140.138 41.3285 138.705 41.6881 137.264 41.5935C135.913 41.6734 134.573 41.2959 133.462 40.5218C133.014 40.176 132.656 39.7277 132.418 39.2146C132.179 38.7015 132.067 38.1386 132.091 37.5733L132.091 37.4464Z" fill="#17444C"/>
<path d="M144.005 25.576H147.148V28.3878H144.005V25.576ZM144.005 29.671H147.148V41.2012H144.005V29.671Z" fill="#17444C"/>
<path d="M154.288 41.2862C154 41.2926 153.656 41.3049 153.256 41.3231C152.858 41.3408 152.603 41.3496 152.496 41.3496C151.619 41.4481 150.737 41.2112 150.027 40.6865C149.585 40.245 149.364 39.3735 149.363 38.0719V31.8352H147.808V29.6709H149.363V26.52H152.474V29.6709H154.288V31.8352H152.474V38.2204C152.458 38.3293 152.468 38.4404 152.504 38.5446C152.54 38.6487 152.6 38.7429 152.679 38.8193C152.942 38.9411 153.233 38.9907 153.522 38.963H154.288V41.2862Z" fill="#17444C"/>
<path d="M155.683 45.8264V43.333C155.783 43.3483 155.888 43.3579 155.995 43.3651C156.103 43.3724 156.244 43.3764 156.418 43.3764C156.92 43.4141 157.418 43.2607 157.811 42.9469C157.975 42.7768 158.101 42.5741 158.181 42.3519C158.261 42.1297 158.294 41.8931 158.276 41.6576C158.275 41.604 158.267 41.5506 158.253 41.4987C158.242 41.445 158.227 41.3919 158.21 41.3397L153.977 29.6707H157.433L159.906 37.9866L162.315 29.6707H165.619L160.792 43.2704C160.567 44.0871 160.096 44.8145 159.442 45.3536C158.705 45.7754 157.859 45.9695 157.011 45.9115C156.816 45.9115 156.609 45.9043 156.385 45.8898C156.162 45.8754 155.928 45.8545 155.683 45.8264Z" fill="#17444C"/>
<path d="M185.733 35.8337C185.705 36.647 185.503 37.445 185.143 38.1747C184.783 38.9045 184.272 39.5494 183.644 40.0667C182.224 41.1621 180.461 41.7183 178.67 41.6361C177.652 41.6949 176.634 41.5319 175.685 41.1584C174.737 40.7848 173.881 40.2096 173.177 39.4726C171.869 38.0301 171.216 36.0073 171.217 33.4045C171.217 30.7457 171.883 28.7091 173.216 27.2946C174.547 25.8801 176.461 25.1729 178.96 25.1729C180.686 25.0767 182.391 25.5933 183.773 26.6315C184.369 27.1421 184.85 27.7734 185.185 28.4837C185.519 29.194 185.698 29.9672 185.712 30.7521H182.482C182.395 29.9597 181.999 29.2335 181.38 28.7316C180.674 28.2356 179.822 27.991 178.96 28.0372C178.344 27.9966 177.728 28.0991 177.158 28.3365C176.588 28.574 176.082 28.94 175.677 29.4059C174.852 30.5691 174.455 31.9819 174.554 33.4045C174.466 34.8056 174.86 36.1947 175.671 37.3405C176.377 38.1014 177.332 38.5844 178.364 38.7021C179.395 38.8197 180.435 38.5642 181.294 37.9819C181.952 37.4398 182.39 36.6759 182.525 35.8337H185.733Z" fill="#17444C"/>
<path d="M186.596 35.4206C186.549 34.6 186.666 33.7782 186.938 33.0026C187.21 32.227 187.634 31.5131 188.183 30.9018C189.389 29.8417 190.939 29.257 192.544 29.257C194.15 29.257 195.7 29.8417 196.905 30.9018C197.456 31.5123 197.881 32.2261 198.154 33.0017C198.427 33.7774 198.544 34.5996 198.497 35.4206C198.544 36.2433 198.428 37.0672 198.155 37.8446C197.882 38.622 197.457 39.3376 196.905 39.9499C195.7 41.0095 194.149 41.5939 192.544 41.5939C190.939 41.5939 189.389 41.0095 188.183 39.9499C187.633 39.3369 187.21 38.6211 186.937 37.8438C186.665 37.0665 186.549 36.2429 186.596 35.4206ZM189.783 35.4206C189.723 36.3593 189.975 37.2915 190.5 38.0722C190.741 38.3812 191.053 38.6274 191.41 38.7898C191.766 38.9523 192.157 39.0261 192.548 39.005C192.935 39.0243 193.322 38.9495 193.674 38.7871C194.027 38.6247 194.335 38.3794 194.572 38.0722C195.041 37.2704 195.289 36.3582 195.29 35.429C195.291 34.4998 195.045 33.5871 194.577 32.7843C194.339 32.4774 194.03 32.2326 193.677 32.071C193.323 31.9094 192.936 31.8358 192.548 31.8563C192.157 31.8351 191.767 31.9084 191.411 32.0699C191.054 32.2315 190.742 32.4765 190.5 32.7843C189.976 33.5594 189.724 34.4867 189.783 35.4206Z" fill="#17444C"/>
<path d="M203.002 25.576H199.86V41.2012H203.002V25.576Z" fill="#17444C"/>
<path d="M208.197 25.576H205.054V41.2012H208.197V25.576Z" fill="#17444C"/>
<path d="M217.381 37.7003H220.513C220.239 38.8531 219.559 39.8684 218.597 40.5598C217.565 41.2702 216.333 41.6325 215.081 41.5938C214.325 41.6293 213.571 41.4969 212.873 41.2061C212.174 40.9153 211.549 40.4733 211.042 39.912C209.993 38.6331 209.461 37.0078 209.551 35.3562C209.46 33.7357 209.984 32.1404 211.02 30.8904C211.529 30.3413 212.153 29.9105 212.847 29.6282C213.541 29.346 214.288 29.2192 215.037 29.2568C215.806 29.2089 216.577 29.3278 217.297 29.6051C218.016 29.8825 218.668 30.3119 219.206 30.8639C220.259 32.1482 220.784 33.7843 220.676 35.4413C220.676 35.6613 220.674 35.8251 220.67 35.9342C220.667 36.0393 220.658 36.1441 220.643 36.2481H212.802C212.787 36.9874 213.025 37.7097 213.477 38.2952C213.701 38.532 213.974 38.7165 214.278 38.8355C214.581 38.9546 214.907 39.0053 215.232 38.984C215.695 39.003 216.154 38.895 216.56 38.6717C216.927 38.4393 217.213 38.1003 217.381 37.7003ZM212.802 34.2211H217.425C217.443 33.5707 217.218 32.9369 216.792 32.4446C216.568 32.2319 216.302 32.068 216.011 31.9632C215.72 31.8583 215.411 31.8148 215.102 31.8353C214.805 31.8191 214.508 31.8655 214.23 31.9715C213.952 32.0774 213.699 32.2405 213.488 32.4502C213.061 32.9431 212.819 33.5692 212.802 34.2211Z" fill="#17444C"/>
<path d="M221.593 42.3151L225.027 42.3047C225.067 42.4838 225.143 42.6531 225.25 42.8024C225.357 42.9517 225.492 43.0781 225.649 43.1741C226.034 43.3829 226.469 43.482 226.907 43.4607C227.272 43.4997 227.642 43.4659 227.994 43.3612C228.346 43.2565 228.673 43.0829 228.958 42.8506C229.421 42.1958 229.629 41.3944 229.542 40.5972V39.568C229.241 40.0973 228.793 40.5268 228.251 40.8035C227.63 41.0886 226.951 41.2249 226.269 41.2017C225.579 41.2284 224.893 41.0986 224.261 40.8221C223.629 40.5455 223.068 40.1294 222.619 39.605C221.658 38.4041 221.17 36.8929 221.247 35.3567C221.162 33.762 221.637 32.1877 222.591 30.9069C223.025 30.3683 223.578 29.9385 224.208 29.6521C224.837 29.3656 225.525 29.2304 226.216 29.2572C226.917 29.2367 227.612 29.3898 228.239 29.7028C228.815 30.0165 229.29 30.4876 229.607 31.0611V29.6715H232.588V40.4382C232.625 41.3736 232.508 42.3088 232.242 43.2062C232.012 43.8423 231.603 44.3986 231.064 44.8085C230.522 45.1993 229.908 45.4784 229.257 45.6298C228.438 45.8278 227.597 45.9224 226.755 45.9115C225.453 45.9829 224.16 45.6535 223.05 44.9675C222.615 44.6722 222.256 44.2777 222.003 43.8167C221.749 43.3556 221.609 42.841 221.593 42.3151ZM224.433 35.2507C224.376 36.1323 224.61 37.0081 225.098 37.7441C225.333 38.0169 225.624 38.2358 225.951 38.3858C226.278 38.5359 226.634 38.6135 226.994 38.6135C227.353 38.6135 227.709 38.5359 228.036 38.3858C228.363 38.2358 228.654 38.0169 228.889 37.7441C229.372 36.9902 229.601 36.101 229.542 35.2074C229.596 34.3401 229.358 33.4796 228.866 32.7629C228.639 32.4764 228.347 32.2484 228.013 32.098C227.68 31.9475 227.315 31.8791 226.95 31.8984C226.592 31.8812 226.235 31.9526 225.911 32.1062C225.587 32.2598 225.306 32.4909 225.093 32.779C224.611 33.5099 224.38 34.3771 224.433 35.2507Z" fill="#17444C"/>
<path d="M241.704 37.7003H244.837C244.563 38.8531 243.883 39.8684 242.92 40.5598C241.888 41.2702 240.657 41.6325 239.404 41.5938C238.649 41.6293 237.894 41.4969 237.196 41.2061C236.498 40.9153 235.873 40.4733 235.366 39.912C234.317 38.6331 233.785 37.0078 233.875 35.3562C233.783 33.7357 234.308 32.1404 235.343 30.8904C235.853 30.3413 236.476 29.9105 237.17 29.6282C237.864 29.346 238.612 29.2192 239.36 29.2568C240.13 29.2089 240.901 29.3278 241.62 29.6051C242.34 29.8825 242.991 30.3119 243.53 30.8639C244.582 32.1482 245.108 33.7843 245 35.4413C245 35.6613 244.998 35.8251 244.994 35.9342C244.99 36.0393 244.981 36.1441 244.967 36.2481H237.126C237.111 36.9874 237.349 37.7097 237.8 38.2952C238.024 38.532 238.298 38.7165 238.601 38.8355C238.905 38.9546 239.231 39.0053 239.556 38.984C240.019 39.003 240.478 38.895 240.884 38.6717C241.25 38.4393 241.536 38.1003 241.704 37.7003ZM237.126 34.2211H241.748C241.767 33.5707 241.541 32.9369 241.116 32.4446C240.891 32.2319 240.625 32.068 240.335 31.9632C240.044 31.8583 239.734 31.8148 239.426 31.8353C239.129 31.8191 238.832 31.8655 238.553 31.9715C238.275 32.0774 238.023 32.2405 237.812 32.4502C237.385 32.9431 237.142 33.5692 237.126 34.2211Z" fill="#17444C"/>
<path d="M69.5776 56.7817V49.6185H70.5779V55.8777H74.2112V56.7817H69.5776Z" fill="#17444C"/>
<path d="M78.4698 55.0994H79.3513C79.279 55.6322 79.0063 56.1174 78.5886 56.4561C78.1422 56.7976 77.5906 56.9727 77.0289 56.9514C76.7026 56.9669 76.3769 56.9095 76.0756 56.7835C75.7743 56.6574 75.5048 56.4657 75.2868 56.2224C74.8356 55.6613 74.6083 54.9529 74.6486 54.234C74.6035 53.4865 74.8279 52.7476 75.2812 52.1516C75.4966 51.9023 75.7659 51.7054 76.0687 51.5758C76.3715 51.4461 76.6999 51.3872 77.0289 51.4034C77.3562 51.3837 77.6839 51.4351 77.9895 51.5541C78.2951 51.6732 78.5712 51.857 78.799 52.093C79.2473 52.6405 79.4713 53.3376 79.4259 54.0437C79.4259 54.1505 79.4243 54.23 79.4243 54.2821C79.4227 54.3343 79.4171 54.3841 79.4115 54.4331H75.5831C75.5637 54.8934 75.7117 55.3451 75.9997 55.7047C76.2646 55.96 76.609 56.1165 76.9755 56.1483C77.342 56.18 77.7083 56.0849 78.013 55.8789C78.2555 55.6836 78.418 55.4063 78.4698 55.0994ZM75.5791 53.7034H78.4899C78.5138 53.2935 78.379 52.8902 78.1134 52.5771C77.8245 52.3232 77.4534 52.1826 77.0687 52.1813C76.6841 52.18 76.3121 52.318 76.0214 52.5698C75.7461 52.8844 75.5896 53.2855 75.5791 53.7034Z" fill="#17444C"/>
<path d="M83.7237 56.0861C83.4722 56.3535 83.1726 56.5711 82.8406 56.7275C82.5291 56.8704 82.1903 56.9438 81.8476 56.9427C81.3876 56.9702 80.9344 56.8215 80.58 56.5269C80.4257 56.3793 80.3051 56.2 80.2265 56.0015C80.148 55.8029 80.1133 55.5897 80.1249 55.3765C80.1136 55.1694 80.1479 54.9624 80.2253 54.7701C80.3027 54.5777 80.4213 54.4046 80.5728 54.263C80.9648 53.9563 81.44 53.7747 81.9367 53.742C82.0924 53.726 82.3012 53.7035 82.5661 53.6746C82.847 53.6585 83.1256 53.6144 83.3977 53.543C83.4821 53.5187 83.5544 53.4641 83.6009 53.3896C83.6442 53.2572 83.6611 53.1175 83.6506 52.9786C83.6576 52.8615 83.6336 52.7446 83.5812 52.6397C83.5288 52.5347 83.4498 52.4454 83.352 52.3805C83.0787 52.2293 82.7677 52.1602 82.4561 52.1815C82.1272 52.1582 81.7997 52.2436 81.5241 52.4247C81.4177 52.5105 81.3336 52.6207 81.2788 52.7459C81.2241 52.8711 81.2002 53.0076 81.2094 53.144H80.3665V53.1053C80.3565 52.868 80.4025 52.6316 80.5006 52.4154C80.5988 52.1991 80.7464 52.0089 80.9316 51.8602C81.3813 51.5328 81.9305 51.3714 82.4858 51.4034C83.0372 51.3606 83.5876 51.4978 84.0544 51.7944C84.2286 51.9442 84.3648 52.1332 84.4519 52.3459C84.5389 52.5585 84.5744 52.7888 84.5553 53.0178V55.6244C84.5397 55.7726 84.5658 55.9222 84.6308 56.0563C84.6645 56.0922 84.7062 56.1198 84.7525 56.1368C84.7987 56.1538 84.8483 56.1598 84.8973 56.1542C84.9298 56.1538 84.9623 56.1514 84.9945 56.147C85.033 56.1422 85.0788 56.1349 85.1317 56.1253V56.8004C85.0377 56.8265 84.9423 56.8471 84.8459 56.8622C84.7696 56.8725 84.6926 56.8779 84.6156 56.8783C84.3774 56.8962 84.1405 56.8294 83.9469 56.6897C83.8691 56.6166 83.8087 56.527 83.7701 56.4276C83.7314 56.3281 83.7156 56.2213 83.7237 56.1149V56.0861ZM83.6394 54.1314C83.2511 54.2964 82.8383 54.3965 82.4176 54.4276C82.2129 54.4541 82.0595 54.475 81.9576 54.4918C81.7017 54.5138 81.4583 54.6116 81.2584 54.7728C81.1836 54.8516 81.126 54.9452 81.0893 55.0474C81.0525 55.1497 81.0374 55.2584 81.0448 55.3669C81.0383 55.4788 81.0573 55.5907 81.1004 55.6942C81.1436 55.7976 81.2096 55.8899 81.2937 55.9641C81.4967 56.1164 81.7477 56.1907 82.0009 56.1736C82.4228 56.1916 82.8383 56.0665 83.1802 55.8188C83.3243 55.7153 83.4413 55.5786 83.5212 55.4203C83.6011 55.2619 83.6417 55.0866 83.6394 54.9093V54.1314Z" fill="#17444C"/>
<path d="M85.9519 56.7819V51.5735H86.8133V52.5072C86.9269 52.1954 87.1275 51.9226 87.3913 51.7213C87.6542 51.5425 87.967 51.4517 88.2848 51.462C88.3506 51.462 88.3987 51.4628 88.4276 51.4636C88.4579 51.4658 88.4879 51.4701 88.5176 51.4764V52.3996C88.4935 52.3972 88.4678 52.3948 88.4389 52.3924C88.4076 52.3916 88.3634 52.3908 88.3048 52.3908C88.1071 52.3769 87.9086 52.4036 87.7216 52.4692C87.5346 52.5347 87.3629 52.6378 87.2171 52.7721C87.0848 52.9238 86.9839 53.1001 86.92 53.2909C86.856 53.4817 86.8304 53.6832 86.8446 53.8839V56.7819H85.9519Z" fill="#17444C"/>
<path d="M92.8513 56.7822V53.5775C92.8877 53.2064 92.8029 52.8335 92.6096 52.5146C92.5031 52.4068 92.3737 52.3243 92.231 52.2733C92.0883 52.2223 91.9359 52.2041 91.7852 52.22C91.5736 52.2073 91.3617 52.2376 91.1622 52.309C90.9627 52.3805 90.7797 52.4917 90.6244 52.6358C90.4801 52.7948 90.3692 52.981 90.2982 53.1836C90.2272 53.3862 90.1975 53.6009 90.211 53.8151V56.7822H89.3207V51.5738H90.1724V52.3324C90.354 52.0503 90.6046 51.8193 90.9005 51.6613C91.2027 51.51 91.5373 51.4348 91.8751 51.4421C92.2206 51.432 92.5645 51.4927 92.8858 51.6203C93.1468 51.7278 93.3679 51.9138 93.5184 52.1526C93.605 52.2886 93.666 52.4393 93.6982 52.5973C93.7411 52.8648 93.7589 53.1357 93.7512 53.4065V56.7822H92.8513Z" fill="#17444C"/>
<path d="M96.3041 55.6979H95.2894V56.7824H96.3041V55.6979Z" fill="#17444C"/>
<path d="M99.9369 56.7821L102.645 49.619H103.738L106.457 56.7821H105.382L104.611 54.642H101.738L100.96 56.7821H99.9369ZM102.045 53.8063H104.318L103.19 50.645L102.045 53.8063Z" fill="#17444C"/>
<path d="M110.626 53.3052C110.622 53.1478 110.585 52.9929 110.518 52.8508C110.45 52.7087 110.353 52.5826 110.233 52.4807C109.953 52.274 109.61 52.1717 109.264 52.1917C109.05 52.1806 108.838 52.2212 108.644 52.3099C108.449 52.3987 108.28 52.533 108.149 52.7015C107.86 53.1311 107.722 53.6443 107.755 54.1609C107.723 54.678 107.855 55.192 108.133 55.6292C108.255 55.7972 108.417 55.9323 108.604 56.0223C108.791 56.1122 108.998 56.1543 109.205 56.1446C109.565 56.1627 109.92 56.0504 110.204 55.8283C110.467 55.5903 110.631 55.2629 110.666 54.9099H111.519C111.511 55.1929 111.446 55.4713 111.327 55.7283C111.208 55.9854 111.039 56.2157 110.829 56.4055C110.359 56.7831 109.767 56.9743 109.165 56.9425C108.843 56.9582 108.521 56.9003 108.225 56.773C107.929 56.6457 107.665 56.4524 107.455 56.208C107.045 55.6085 106.829 54.8982 106.834 54.1722C106.839 53.4461 107.065 52.739 107.483 52.1452C107.706 51.8967 107.981 51.7011 108.289 51.5728C108.597 51.4444 108.93 51.3866 109.264 51.4034C109.843 51.3743 110.413 51.5566 110.868 51.9164C111.067 52.0888 111.227 52.3019 111.338 52.5415C111.448 52.781 111.506 53.0414 111.507 53.3052H110.626Z" fill="#17444C"/>
<path d="M115.959 56.7821V53.5775C115.996 53.2058 115.912 52.8322 115.718 52.513C115.611 52.4056 115.481 52.3235 115.339 52.2727C115.196 52.222 115.044 52.204 114.893 52.22C114.473 52.1986 114.061 52.3427 113.745 52.6214C113.602 52.7614 113.489 52.9302 113.416 53.1167C113.342 53.3033 113.309 53.5033 113.319 53.7035V56.7821H112.429V49.619H113.319V52.3075C113.474 52.0322 113.707 51.8084 113.988 51.6637C114.297 51.5101 114.638 51.434 114.983 51.4421C115.329 51.432 115.672 51.4927 115.994 51.6203C116.255 51.7278 116.476 51.9138 116.626 52.1526C116.713 52.2885 116.774 52.4393 116.806 52.5973C116.849 52.8648 116.867 53.1357 116.859 53.4065V56.7821H115.959Z" fill="#17444C"/>
<path d="M118.196 49.6185H119.087V50.6148H118.196V49.6185ZM118.196 51.5733H119.087V56.7821H118.196V51.5733Z" fill="#17444C"/>
<path d="M124.021 55.0993H124.902C124.828 55.6317 124.556 56.1164 124.139 56.456C123.693 56.7974 123.141 56.9725 122.58 56.9513C122.253 56.967 121.927 56.9097 121.626 56.7837C121.324 56.6576 121.054 56.4658 120.836 56.2224C120.385 55.6609 120.158 54.9528 120.198 54.2339C120.153 53.4863 120.378 52.7474 120.832 52.1515C121.047 51.9023 121.317 51.7055 121.62 51.5758C121.922 51.4462 122.251 51.3872 122.58 51.4034C122.907 51.3837 123.235 51.4352 123.54 51.5543C123.846 51.6733 124.122 51.8571 124.35 52.0929C124.797 52.641 125.02 53.3378 124.975 54.0437C124.975 54.1504 124.975 54.2299 124.974 54.2821C124.972 54.3326 124.968 54.383 124.961 54.433H121.134C121.113 54.8932 121.261 55.3452 121.549 55.7046C121.814 55.9599 122.158 56.1165 122.525 56.1482C122.891 56.1799 123.257 56.0848 123.562 55.8788C123.805 55.684 123.969 55.4066 124.021 55.0993ZM121.128 53.7033H124.041C124.064 53.2935 123.929 52.8905 123.664 52.577C123.375 52.3232 123.004 52.1826 122.62 52.1812C122.235 52.1799 121.863 52.3179 121.572 52.5698C121.297 52.8848 121.14 53.2854 121.128 53.7033Z" fill="#17444C"/>
<path d="M127.283 56.7816L125.328 51.5732H126.282L127.763 55.746L129.21 51.5732H130.165L128.23 56.7816H127.283Z" fill="#17444C"/>
<path d="M134.443 55.0993H135.324C135.25 55.6317 134.978 56.1164 134.561 56.456C134.115 56.7974 133.563 56.9725 133.002 56.9513C132.675 56.967 132.349 56.9097 132.047 56.7837C131.746 56.6576 131.476 56.4658 131.258 56.2224C130.807 55.6609 130.58 54.9528 130.62 54.2339C130.575 53.4863 130.8 52.7474 131.254 52.1515C131.469 51.9023 131.739 51.7055 132.041 51.5758C132.344 51.4462 132.673 51.3872 133.002 51.4034C133.329 51.3837 133.657 51.4352 133.962 51.5543C134.268 51.6733 134.544 51.8571 134.772 52.0929C135.219 52.641 135.442 53.3378 135.397 54.0437C135.397 54.1504 135.397 54.2299 135.395 54.2821C135.394 54.3326 135.39 54.383 135.383 54.433H131.556C131.535 54.8932 131.683 55.3452 131.971 55.7046C132.236 55.9599 132.58 56.1165 132.947 56.1482C133.313 56.1799 133.679 56.0848 133.984 55.8788C134.227 55.684 134.39 55.4066 134.443 55.0993ZM131.55 53.7033H134.463C134.486 53.2935 134.351 52.8905 134.086 52.577C133.797 52.3232 133.426 52.1826 133.041 52.1812C132.657 52.1799 132.285 52.3179 131.994 52.5698C131.719 52.8848 131.562 53.2854 131.55 53.7033Z" fill="#17444C"/>
<path d="M137.635 55.6979H136.621V56.7824H137.635V55.6979Z" fill="#17444C"/>
<path d="M141.74 54.4229H142.696C142.691 54.6554 142.736 54.8862 142.827 55.1001C142.918 55.314 143.054 55.5059 143.225 55.6632C143.606 55.9856 144.095 56.151 144.593 56.1256C145.063 56.1515 145.53 56.0288 145.928 55.7748C146.083 55.6699 146.209 55.5276 146.294 55.361C146.379 55.1944 146.421 55.009 146.416 54.8219C146.416 54.2736 145.805 53.857 144.584 53.572C144.511 53.5559 144.454 53.5423 144.415 53.5334C143.712 53.4236 143.042 53.1605 142.452 52.7628C142.289 52.6084 142.161 52.4201 142.079 52.2112C141.997 52.0023 141.961 51.7779 141.975 51.5538C141.965 51.2593 142.025 50.9667 142.148 50.6994C142.272 50.432 142.457 50.1973 142.688 50.0141C143.232 49.6043 143.903 49.3986 144.584 49.4329C145.271 49.3941 145.949 49.6118 146.486 50.0438C146.718 50.2545 146.902 50.5139 147.023 50.8034C147.144 51.0929 147.2 51.4056 147.187 51.7192L146.242 51.724C146.239 51.5157 146.193 51.3102 146.108 51.1202C146.022 50.9302 145.899 50.7598 145.745 50.6194C145.396 50.3472 144.961 50.2109 144.52 50.2357C144.108 50.2149 143.7 50.3248 143.355 50.5495C143.218 50.6408 143.106 50.765 143.03 50.9108C142.954 51.0566 142.916 51.2192 142.92 51.3836C142.92 51.9383 143.521 52.3518 144.723 52.6239C144.9 52.6656 145.037 52.6986 145.132 52.7202C145.152 52.7242 145.187 52.7323 145.236 52.7451C145.793 52.8369 146.326 53.0403 146.802 53.3432C146.995 53.5028 147.147 53.7055 147.247 53.9348C147.353 54.1796 147.405 54.4438 147.401 54.7103C147.413 55.0249 147.351 55.3379 147.219 55.6241C147.088 55.9102 146.892 56.1617 146.646 56.3584C146.057 56.7937 145.335 57.0103 144.604 56.9709C143.857 57.0168 143.119 56.7821 142.536 56.3126C142.28 56.0694 142.078 55.776 141.941 55.4508C141.804 55.1257 141.736 54.7757 141.74 54.4229Z" fill="#17444C"/>
<path d="M149.406 51.5732V54.7683C149.37 55.1411 149.456 55.5157 149.651 55.8352C149.758 55.9444 149.888 56.0281 150.031 56.0801C150.174 56.1321 150.328 56.151 150.48 56.1354C150.695 56.1505 150.912 56.1184 151.114 56.0415C151.316 55.9646 151.499 55.8446 151.65 55.6899C151.938 55.3163 152.079 54.8496 152.045 54.3789V51.5732H152.937V56.7819H152.085V56.004C151.913 56.2931 151.665 56.5288 151.367 56.6847C151.045 56.8431 150.69 56.9216 150.332 56.9135C150 56.9211 149.671 56.8578 149.366 56.7281C149.109 56.6191 148.89 56.4364 148.737 56.2031C148.651 56.0668 148.591 55.9161 148.559 55.7583C148.516 55.4909 148.497 55.22 148.505 54.9491V51.5735L149.406 51.5732Z" fill="#17444C"/>
<path d="M157.814 53.3047C157.81 53.1473 157.772 52.9925 157.704 52.8505C157.636 52.7084 157.539 52.5823 157.419 52.4803C157.14 52.2736 156.798 52.1713 156.452 52.1913C156.238 52.1803 156.025 52.2209 155.831 52.3096C155.636 52.3983 155.466 52.5326 155.334 52.7011C155.047 53.1313 154.909 53.6441 154.942 54.1605C154.909 54.6776 155.042 55.1916 155.32 55.6288C155.442 55.7967 155.604 55.9317 155.791 56.0216C155.978 56.1116 156.184 56.1537 156.392 56.1441C156.752 56.1628 157.106 56.0505 157.39 55.8279C157.653 55.5901 157.818 55.2626 157.853 54.9095H158.704C158.697 55.1923 158.632 55.4706 158.514 55.7277C158.396 55.9848 158.227 56.2152 158.017 56.405C157.547 56.7825 156.955 56.9736 156.353 56.9421C156.031 56.9577 155.709 56.8997 155.412 56.7724C155.116 56.6451 154.852 56.452 154.641 56.2076C154.232 55.608 154.015 54.8979 154.02 54.1719C154.025 53.4459 154.251 52.7387 154.669 52.1447C154.892 51.8964 155.168 51.701 155.477 51.5726C155.785 51.4443 156.118 51.3864 156.452 51.403C157.03 51.3735 157.6 51.5559 158.053 51.916C158.253 52.0883 158.414 52.3014 158.524 52.5409C158.635 52.7805 158.694 53.0409 158.695 53.3047H157.814Z" fill="#17444C"/>
<path d="M163.138 53.3052C163.134 53.1478 163.097 52.9929 163.03 52.8508C162.962 52.7087 162.865 52.5826 162.745 52.4807C162.465 52.274 162.123 52.1717 161.776 52.1917C161.563 52.1806 161.35 52.2212 161.156 52.3099C160.962 52.3987 160.792 52.533 160.661 52.7015C160.372 53.1311 160.234 53.6443 160.267 54.1609C160.235 54.678 160.367 55.192 160.645 55.6292C160.767 55.7972 160.929 55.9323 161.116 56.0223C161.303 56.1122 161.51 56.1543 161.717 56.1446C162.077 56.1627 162.432 56.0504 162.716 55.8283C162.979 55.5903 163.144 55.2629 163.178 54.9099H164.031C164.023 55.1929 163.958 55.4713 163.839 55.7283C163.721 55.9854 163.551 56.2157 163.341 56.4055C162.871 56.7831 162.279 56.9743 161.677 56.9425C161.355 56.9582 161.033 56.9003 160.737 56.773C160.441 56.6457 160.177 56.4524 159.967 56.208C159.558 55.6085 159.341 54.8982 159.346 54.1722C159.351 53.4461 159.577 52.739 159.995 52.1452C160.218 51.8967 160.493 51.7011 160.801 51.5728C161.11 51.4444 161.442 51.3866 161.776 51.4034C162.355 51.3743 162.925 51.5566 163.38 51.9164C163.579 52.0888 163.74 52.3019 163.85 52.5415C163.96 52.781 164.018 53.0414 164.019 53.3052H163.138Z" fill="#17444C"/>
<path d="M168.509 55.0994H169.391C169.318 55.6322 169.046 56.1174 168.628 56.4561C168.181 56.7976 167.63 56.9727 167.068 56.9514C166.742 56.9669 166.416 56.9095 166.115 56.7835C165.814 56.6574 165.544 56.4657 165.326 56.2224C164.875 55.6613 164.648 54.9529 164.688 54.234C164.643 53.4865 164.867 52.7476 165.321 52.1516C165.536 51.9023 165.805 51.7054 166.108 51.5758C166.411 51.4461 166.739 51.3872 167.068 51.4034C167.396 51.3837 167.723 51.4351 168.029 51.5541C168.334 51.6732 168.611 51.857 168.838 52.093C169.287 52.6405 169.511 53.3376 169.465 54.0437C169.465 54.1505 169.464 54.23 169.464 54.2821C169.462 54.3343 169.456 54.3841 169.451 54.4331H165.622C165.603 54.8934 165.751 55.3451 166.039 55.7047C166.304 55.96 166.648 56.1165 167.015 56.1483C167.381 56.18 167.748 56.0849 168.052 55.8789C168.295 55.6836 168.457 55.4063 168.509 55.0994ZM165.618 53.7034H168.529C168.553 53.2935 168.418 52.8902 168.153 52.5771C167.864 52.3232 167.493 52.1826 167.108 52.1813C166.723 52.18 166.351 52.318 166.061 52.5698C165.785 52.8844 165.629 53.2855 165.618 53.7034Z" fill="#17444C"/>
<path d="M174.055 55.0994H174.936C174.864 55.6322 174.591 56.1174 174.174 56.4561C173.727 56.7976 173.176 56.9727 172.614 56.9514C172.288 56.9669 171.962 56.9095 171.661 56.7835C171.359 56.6574 171.09 56.4657 170.872 56.2224C170.421 55.6613 170.193 54.9529 170.234 54.234C170.188 53.4865 170.413 52.7476 170.866 52.1516C171.082 51.9023 171.351 51.7054 171.654 51.5758C171.956 51.4461 172.285 51.3872 172.614 51.4034C172.941 51.3837 173.269 51.4351 173.574 51.5541C173.88 51.6732 174.156 51.857 174.384 52.093C174.832 52.6405 175.056 53.3376 175.011 54.0437C175.011 54.1505 175.009 54.23 175.009 54.2821C175.008 54.3343 175.002 54.3841 174.996 54.4331H171.168C171.149 54.8934 171.297 55.3451 171.585 55.7047C171.85 55.96 172.194 56.1165 172.56 56.1483C172.927 56.18 173.293 56.0849 173.598 55.8789C173.84 55.6836 174.003 55.4063 174.055 55.0994ZM171.164 53.7034H174.075C174.099 53.2935 173.964 52.8902 173.698 52.5771C173.409 52.3232 173.038 52.1826 172.654 52.1813C172.269 52.18 171.897 52.318 171.606 52.5698C171.331 52.8844 171.175 53.2855 171.164 53.7034Z" fill="#17444C"/>
<path d="M180.665 49.6185V56.7819H179.804V56.1252C179.595 56.3839 179.332 56.5931 179.032 56.7377C178.735 56.8763 178.41 56.9463 178.082 56.9424C177.762 56.9551 177.443 56.8945 177.15 56.7651C176.856 56.6357 176.597 56.441 176.39 56.1959C175.946 55.6265 175.722 54.9159 175.759 54.1946C175.72 53.4624 175.945 52.7404 176.392 52.1595C176.597 51.9125 176.856 51.7159 177.149 51.5848C177.442 51.4537 177.761 51.3916 178.082 51.4033C178.42 51.3965 178.756 51.4656 179.064 51.6056C179.356 51.7443 179.61 51.952 179.804 52.2109V49.6188L180.665 49.6185ZM179.835 54.1413C179.872 53.6236 179.731 53.1087 179.436 52.6819C179.291 52.5144 179.108 52.3829 178.903 52.2978C178.698 52.2127 178.477 52.1763 178.255 52.1914C178.032 52.1801 177.81 52.223 177.607 52.3164C177.404 52.4097 177.227 52.5509 177.09 52.7277C176.791 53.1776 176.647 53.7134 176.681 54.2529C176.652 54.7551 176.802 55.2512 177.103 55.6538C177.244 55.8223 177.423 55.956 177.624 56.0444C177.825 56.1328 178.044 56.1736 178.264 56.1635C178.485 56.175 178.706 56.1334 178.908 56.042C179.11 55.9507 179.287 55.8123 179.424 55.6385C179.724 55.1993 179.869 54.6723 179.835 54.1413Z" fill="#17444C"/>
<path d="M183.274 55.6979H182.259V56.7824H183.274V55.6979Z" fill="#17444C"/>
</g>
<defs>
<clipPath id="clip0_1345_1219">
<rect width="245" height="61.1133" fill="white" transform="translate(0 0.503296)"/>
</clipPath>
</defs>
</svg>
